<svg width="203" height="44" viewBox="0 0 203 44" fill="none" xmlns="http://www.w3.org/2000/svg">
<path d="M49 34V11.1562H52.75V34H49ZM65.4219 11.1562C68.3698 11.1562 70.5208 11.7604 71.875 12.9688C73.2292 14.1771 73.9062 15.8698 73.9062 18.0469C73.9062 19.0365 73.75 19.9792 73.4375 20.875C73.1354 21.7604 72.6354 22.5469 71.9375 23.2344C71.2396 23.9115 70.3177 24.4479 69.1719 24.8438C68.0365 25.2396 66.6354 25.4375 64.9688 25.4375H62.5312V34H58.7812V11.1562H65.4219ZM65.1719 14.2656H62.5312V22.3125H64.5781C65.7552 22.3125 66.7552 22.1771 67.5781 21.9062C68.401 21.625 69.026 21.1823 69.4531 20.5781C69.8802 19.974 70.0938 19.1771 70.0938 18.1875C70.0938 16.8646 69.6927 15.8802 68.8906 15.2344C68.099 14.5885 66.8594 14.2656 65.1719 14.2656ZM82.1875 34H78.4688V11.1562H91.375V14.3125H82.1875V21.4375H90.7812V24.5781H82.1875V34ZM108.719 27.7812C108.719 29.1354 108.385 30.3021 107.719 31.2812C107.062 32.2604 106.115 33.0104 104.875 33.5312C103.646 34.0521 102.177 34.3125 100.469 34.3125C99.6354 34.3125 98.8385 34.2656 98.0781 34.1719C97.3177 34.0781 96.599 33.9427 95.9219 33.7656C95.2552 33.5781 94.6458 33.3542 94.0938 33.0938V29.5625C95.0208 29.9688 96.0573 30.3385 97.2031 30.6719C98.349 30.9948 99.5156 31.1562 100.703 31.1562C101.672 31.1562 102.474 31.0312 103.109 30.7812C103.755 30.5208 104.234 30.1562 104.547 29.6875C104.859 29.2083 105.016 28.651 105.016 28.0156C105.016 27.3385 104.833 26.7656 104.469 26.2969C104.104 25.8281 103.552 25.401 102.812 25.0156C102.083 24.6198 101.167 24.1979 100.062 23.75C99.3125 23.4479 98.5938 23.1042 97.9062 22.7188C97.2292 22.3333 96.625 21.8802 96.0938 21.3594C95.5625 20.8385 95.1406 20.224 94.8281 19.5156C94.526 18.7969 94.375 17.9531 94.375 16.9844C94.375 15.6927 94.6823 14.5885 95.2969 13.6719C95.9219 12.7552 96.7969 12.0521 97.9219 11.5625C99.0573 11.0729 100.38 10.8281 101.891 10.8281C103.089 10.8281 104.214 10.9531 105.266 11.2031C106.328 11.4531 107.37 11.8073 108.391 12.2656L107.203 15.2812C106.266 14.8958 105.354 14.5885 104.469 14.3594C103.594 14.1302 102.698 14.0156 101.781 14.0156C100.99 14.0156 100.318 14.1354 99.7656 14.375C99.2135 14.6146 98.7917 14.9531 98.5 15.3906C98.2188 15.8177 98.0781 16.3281 98.0781 16.9219C98.0781 17.5885 98.2396 18.151 98.5625 18.6094C98.8958 19.0573 99.4062 19.4688 100.094 19.8438C100.792 20.2188 101.688 20.6354 102.781 21.0938C104.042 21.6146 105.109 22.1615 105.984 22.7344C106.87 23.3073 107.547 23.9948 108.016 24.7969C108.484 25.5885 108.719 26.5833 108.719 27.7812ZM134.625 27.7812C134.625 29.1354 134.292 30.3021 133.625 31.2812C132.969 32.2604 132.021 33.0104 130.781 33.5312C129.552 34.0521 128.083 34.3125 126.375 34.3125C125.542 34.3125 124.745 34.2656 123.984 34.1719C123.224 34.0781 122.505 33.9427 121.828 33.7656C121.161 33.5781 120.552 33.3542 120 33.0938V29.5625C120.927 29.9688 121.964 30.3385 123.109 30.6719C124.255 30.9948 125.422 31.1562 126.609 31.1562C127.578 31.1562 128.38 31.0312 129.016 30.7812C129.661 30.5208 130.141 30.1562 130.453 29.6875C130.766 29.2083 130.922 28.651 130.922 28.0156C130.922 27.3385 130.74 26.7656 130.375 26.2969C130.01 25.8281 129.458 25.401 128.719 25.0156C127.99 24.6198 127.073 24.1979 125.969 23.75C125.219 23.4479 124.5 23.1042 123.812 22.7188C123.135 22.3333 122.531 21.8802 122 21.3594C121.469 20.8385 121.047 20.224 120.734 19.5156C120.432 18.7969 120.281 17.9531 120.281 16.9844C120.281 15.6927 120.589 14.5885 121.203 13.6719C121.828 12.7552 122.703 12.0521 123.828 11.5625C124.964 11.0729 126.286 10.8281 127.797 10.8281C128.995 10.8281 130.12 10.9531 131.172 11.2031C132.234 11.4531 133.276 11.8073 134.297 12.2656L133.109 15.2812C132.172 14.8958 131.26 14.5885 130.375 14.3594C129.5 14.1302 128.604 14.0156 127.688 14.0156C126.896 14.0156 126.224 14.1354 125.672 14.375C125.12 14.6146 124.698 14.9531 124.406 15.3906C124.125 15.8177 123.984 16.3281 123.984 16.9219C123.984 17.5885 124.146 18.151 124.469 18.6094C124.802 19.0573 125.312 19.4688 126 19.8438C126.698 20.2188 127.594 20.6354 128.688 21.0938C129.948 21.6146 131.016 22.1615 131.891 22.7344C132.776 23.3073 133.453 23.9948 133.922 24.7969C134.391 25.5885 134.625 26.5833 134.625 27.7812ZM148.766 14.0156C147.672 14.0156 146.693 14.2135 145.828 14.6094C144.974 15.0052 144.25 15.5781 143.656 16.3281C143.062 17.0677 142.609 17.9688 142.297 19.0312C141.984 20.0833 141.828 21.2708 141.828 22.5938C141.828 24.3646 142.078 25.8906 142.578 27.1719C143.078 28.4427 143.839 29.4219 144.859 30.1094C145.88 30.7865 147.172 31.125 148.734 31.125C149.703 31.125 150.646 31.0312 151.562 30.8438C152.479 30.6562 153.427 30.401 154.406 30.0781V33.2656C153.479 33.6302 152.542 33.8958 151.594 34.0625C150.646 34.2292 149.552 34.3125 148.312 34.3125C145.979 34.3125 144.042 33.8281 142.5 32.8594C140.969 31.8906 139.823 30.526 139.062 28.7656C138.312 27.0052 137.938 24.9427 137.938 22.5781C137.938 20.849 138.177 19.2656 138.656 17.8281C139.135 16.3906 139.833 15.151 140.75 14.1094C141.667 13.0573 142.797 12.25 144.141 11.6875C145.495 11.1146 147.042 10.8281 148.781 10.8281C149.927 10.8281 151.052 10.9583 152.156 11.2188C153.271 11.4688 154.302 11.8281 155.25 12.2969L153.938 15.3906C153.146 15.0156 152.318 14.6927 151.453 14.4219C150.589 14.151 149.693 14.0156 148.766 14.0156ZM173.469 34L171.234 27.6562H162.5L160.266 34H156.312L164.812 11.0625H168.969L177.453 34H173.469ZM170.266 24.4375L168.094 18.1875C168.01 17.9167 167.891 17.5365 167.734 17.0469C167.578 16.5469 167.422 16.0417 167.266 15.5312C167.109 15.0104 166.979 14.5729 166.875 14.2188C166.771 14.6458 166.641 15.125 166.484 15.6562C166.339 16.1771 166.193 16.6667 166.047 17.125C165.911 17.5833 165.807 17.9375 165.734 18.1875L163.547 24.4375H170.266ZM199.531 34H194.922L183.734 15.7656H183.594C183.635 16.3802 183.672 17.0312 183.703 17.7188C183.745 18.4062 183.776 19.1146 183.797 19.8438C183.828 20.5729 183.854 21.3125 183.875 22.0625V34H180.469V11.1562H185.047L196.219 29.2656H196.328C196.307 28.7344 196.281 28.125 196.25 27.4375C196.219 26.75 196.188 26.0417 196.156 25.3125C196.135 24.5729 196.12 23.8594 196.109 23.1719V11.1562H199.531V34Z" fill="white"/>
<path d="M0.000854492 32.8814L18.9839 43.8418L37.9669 32.8814V10.9605L18.9839 0L0.000854492 10.9605V32.8814Z" fill="#6ACAD1"/>
<path d="M17.0396 2.62146L3.25429 10.5763C3.27689 10.8243 3.27689 11.0739 3.25429 11.322L17.017 19.2768C18.1787 18.4179 19.7649 18.4179 20.9266 19.2768L34.6893 11.322C34.6667 11.0739 34.6667 10.8243 34.6893 10.5763L20.9492 2.62146C19.7875 3.48035 18.2013 3.48035 17.0396 2.62146ZM36.0226 13.5141L22.2373 21.5593C22.3906 22.9906 21.6065 24.3583 20.2938 24.9491L20.3164 40.7683C20.5393 40.8666 20.7514 40.9878 20.9492 41.1299L34.7119 33.1751C34.5587 31.7438 35.3428 30.3762 36.6554 29.7853V13.8757C36.4351 13.7724 36.2235 13.6515 36.0226 13.5141ZM1.94356 13.6045C1.74572 13.7466 1.53366 13.8678 1.31079 13.9661V29.8757C2.64146 30.4465 3.43398 31.8288 3.25429 33.2655L17.017 41.2203C17.2148 41.0782 17.4269 40.957 17.6498 40.8587V24.9491C16.3191 24.3783 15.5266 22.996 15.7063 21.5593L1.94356 13.6045Z" fill="#6ACAD1"/>
<path d="M18.9831 2.37291L35.9548 12.1808V31.774L18.9831 41.5819L2.0113 31.774V12.1582L18.9831 2.37291ZM18.9831 0.0452271L0 11.0057V32.9266L18.9831 43.887L37.9661 32.9266V11.0057L18.9831 0.0452271Z" fill="#469EA2"/>
<path d="M19.1186 40.226H18.8475C17.5638 40.2221 16.3789 40.9141 15.7514 42.0339L18.983 43.887L22.2147 42.0339C21.5872 40.9141 20.4023 40.2221 19.1186 40.226ZM37.9887 29.2656H37.8531C36.9114 29.2632 36.0075 29.6362 35.3416 30.3021C34.6757 30.968 34.3027 31.8719 34.3051 32.8136V33.0848C34.3018 33.6871 34.4577 34.2796 34.7571 34.8023L37.9887 32.9266V29.2656ZM34.7571 9.15257C34.4604 9.67635 34.3047 10.2681 34.3051 10.8701V11.1413C34.3027 12.083 34.6757 12.9869 35.3416 13.6528C36.0075 14.3187 36.9114 14.6917 37.8531 14.6893H37.9887V11.0057L34.7571 9.15257ZM18.983 0.0452271L15.7514 1.89833C16.3758 3.0241 17.5601 3.72429 18.8475 3.72886H19.1186C20.4023 3.73271 21.5872 3.04076 22.2147 1.92093L18.983 0.0452271ZM3.23164 9.12997L0 11.0057V14.6893H0.135593C1.07732 14.6917 1.98118 14.3187 2.64708 13.6528C3.31299 12.9869 3.68602 12.083 3.68363 11.1413V10.8701C3.67596 10.262 3.52086 9.6649 3.23164 9.12997ZM0.135593 29.2656H0V32.9266L3.23164 34.8023C3.5283 34.2785 3.68403 33.6867 3.68363 33.0848V32.8136C3.68602 31.8719 3.31299 30.968 2.64708 30.3021C1.98118 29.6362 1.07732 29.2632 0.135593 29.2656Z" fill="#469EA2"/>
<path d="M23.0411 25.8561C23.0071 25.8821 22.9741 25.9111 22.9421 25.9431C22.9102 25.9751 22.8821 26.0071 22.8551 26.0421C22.2281 26.6461 21.4901 27.1331 20.6751 27.4712C19.8531 27.8112 18.9501 28.0002 18.0001 28.0002C17.0501 28.0002 16.1471 27.8112 15.3231 27.4702C14.4671 27.1162 13.6961 26.5961 13.0501 25.9492C12.4041 25.3022 11.8841 24.5322 11.5291 23.6762C11.1891 22.8532 11 21.9502 11 21.0002C11 20.0502 11.189 19.1472 11.53 18.3232C11.884 17.4682 12.4041 16.6961 13.05 16.0502C13.696 15.4042 14.468 14.8842 15.323 14.5302C16.147 14.1892 17.05 14.0002 18.0001 14.0002C18.9501 14.0002 19.853 14.1892 20.6771 14.5302C21.5331 14.8842 22.3041 15.4042 22.9501 16.0512C23.596 16.6982 24.116 17.4682 24.4711 18.3242C24.8111 19.1472 25.0001 20.0502 25.0001 21.0002C25.0001 21.9502 24.8111 22.8532 24.4701 23.6772C24.1321 24.4922 23.6451 25.2302 23.0411 25.8572L23.0411 25.8561ZM28.7071 30.2931L25.0321 26.6181C25.5571 25.9621 25.9921 25.2311 26.3181 24.4421C26.7581 23.3801 27.0001 22.2171 27.0001 21.0001C27.0001 19.783 26.7581 18.62 26.3181 17.558C25.8621 16.456 25.1931 15.465 24.3641 14.636C23.5351 13.807 22.5441 13.138 21.4421 12.682C20.3801 12.242 19.2171 12 18.0001 12C16.783 12 15.62 12.242 14.558 12.682C13.456 13.138 12.465 13.807 11.636 14.636C10.807 15.465 10.138 16.456 9.68202 17.558C9.24202 18.62 9 19.783 9 21.0001C9 22.2171 9.24199 23.3801 9.68202 24.4421C10.138 25.5441 10.807 26.5351 11.636 27.3641C12.465 28.1931 13.456 28.8621 14.558 29.3181C15.62 29.7581 16.783 30.0001 18.0001 30.0001C19.2171 30.0001 20.3801 29.7581 21.4421 29.3181C22.2301 28.9911 22.9621 28.5561 23.6181 28.0321L27.2931 31.7071C27.6841 32.0981 28.3171 32.0981 28.7071 31.7071C29.0971 31.3161 29.0981 30.6831 28.7071 30.2931Z" fill="#469EA2"/>
</svg>
